<mxfile host="app.diagrams.net" modified="2024-04-17T09:53:51.556Z" agent="Mozilla/5.0 (Windows NT 10.0; Win64; x64) AppleWebKit/537.36 (KHTML, like Gecko) Chrome/123.0.0.0 Safari/537.36" version="24.2.5" etag="yf_KCFS-Jz4rP9oq3-Ax" type="github">
  <diagram name="페이지-1" id="QUmp5RjvtYHb4ts2CwWA">
    <mxGraphModel>
      <root>
        <mxCell id="0" />
        <mxCell id="1" parent="0" />
      </root>
    </mxGraphModel>
  </diagram>
</mxfile>
